<?xml version="1.0" encoding="utf-8"?>
<!-- Generator: Adobe Illustrator 21.0.0, SVG Export Plug-In . SVG Version: 6.00 Build 0)  -->
<svg version="1.1" id="Слой_1" xmlns="http://www.w3.org/2000/svg" xmlns:xlink="http://www.w3.org/1999/xlink" x="0px" y="0px"
	 viewBox="0 0 1920 1080" style="enable-background:new 0 0 1920 1080;" xml:space="preserve">
<style type="text/css">
	.st0{fill:#FFFFFF;}
	.st1{fill:#FFFFFF;stroke:#000000;stroke-miterlimit:10;}
</style>
<rect x="0" width="1920" height="1080"/>
<g>
	<path class="st0" d="M1033.9,228.2H886.1c-37.4,0-67.8,34.7-67.8,77.6v32.7c0,1.7,1.3,3.1,2.9,3.1h65.5c1.6,0,2.9-1.4,2.9-3.1v-3.5
		v-14.7v-8.4c0-1.7-1.3-3.1-2.9-3.1l0,0c-1.6,0-2.9,1.4-2.9,3.1v20c0,1.7-1.3,3.1-2.9,3.1h-48.8c-1.6,0-2.9-1.4-2.9-3.1v-10.4
		c0-42.8,30.4-77.6,67.8-77.6h126.1c37.4,0,67.8,34.7,67.8,77.6v10.4c0,1.7-1.3,3.1-2.9,3.1h-53.4c-1.6,0-2.9,1.4-2.9,3.1v0.4
		c0,1.7,1.3,3.1,2.9,3.1h64.2c1.6,0,2.9-1.4,2.9-3.1v-32.7C1101.7,262.9,1071.4,228.2,1033.9,228.2z"/>
	<g>
		<path class="st0" d="M801.7,630.5l-4.8,3.9c-1.3-1.3-2.4-2.3-3.5-3c-1-0.7-2.5-1-4.5-1c-2.1,0-3.9,0.5-5.2,1.4c-1.3,1-2,2.2-2,3.7
			c0,1.3,0.6,2.5,1.7,3.5c1.2,1,3.1,2.1,5.9,3.3c2.8,1.2,5,2.3,6.5,3.4s2.8,2.2,3.8,3.4s1.7,2.6,2.2,4s0.7,2.9,0.7,4.4
			c0,3.6-1.3,6.7-3.9,9.3s-5.8,3.8-9.6,3.8c-3.6,0-6.9-1-9.7-3c-2.8-2-4.9-5-6.4-9l5.9-1.7c2.2,4.9,5.5,7.3,9.9,7.3
			c2.2,0,4-0.6,5.4-1.9s2.2-2.9,2.2-4.9c0-1.2-0.4-2.4-1.1-3.6c-0.8-1.2-1.7-2.2-2.8-2.9c-1.1-0.8-2.9-1.7-5.3-2.7
			c-2.4-1-4.3-1.9-5.6-2.7s-2.5-1.8-3.4-3c-1-1.2-1.7-2.3-2.1-3.4c-0.4-1.1-0.7-2.4-0.7-3.7c0-3.1,1.3-5.8,3.8-8
			c2.5-2.2,5.5-3.3,9.1-3.3c2.4,0,4.8,0.5,7.2,1.5C798.1,626.9,800.1,628.4,801.7,630.5z"/>
		<path class="st0" d="M822,655c0-3.9,1.5-7.3,4.6-10.3c3-3,6.5-4.5,10.5-4.5c4.1,0,7.6,1.5,10.6,4.4c3,3,4.5,6.4,4.5,10.3
			c0,4-1.5,7.5-4.5,10.5s-6.4,4.5-10.3,4.5c-4.2,0-7.8-1.5-10.9-4.5C823.5,662.5,822,659,822,655z M846.4,655c0-2.4-0.9-4.5-2.7-6.3
			c-1.8-1.8-4-2.7-6.5-2.7c-2.6,0-4.8,0.9-6.6,2.7c-1.9,1.8-2.8,3.9-2.8,6.4c0,2.4,0.9,4.5,2.8,6.2s4.1,2.7,6.6,2.7
			c2.5,0,4.6-0.9,6.5-2.7S846.4,657.4,846.4,655z"/>
		<path class="st0" d="M871.4,669.2V641h5.8v4.7c1.7-1.9,3.3-3.3,4.6-4.2c1.4-0.9,2.9-1.3,4.6-1.3c2.6,0,4.7,0.8,6.5,2.5
			c1.8,1.7,2.7,3.7,2.7,6.1v20.4h-5.9v-18.6c0-1.5-0.5-2.8-1.5-3.8c-1-1-2.3-1.5-3.8-1.5c-2,0-3.7,0.8-5.1,2.5
			c-1.4,1.7-2.2,3.7-2.2,6.1v15.3H871.4z"/>
		<path class="st0" d="M940.7,641h5.8v27.1c0,4-1.4,7.4-4.1,10.2c-2.7,2.8-6.1,4.2-10,4.2c-3,0-5.7-0.8-8.2-2.4
			c-2.5-1.6-4.3-4.1-5.5-7.3h6.2c1.8,3.1,4.4,4.6,7.7,4.6c2.2,0,4.1-0.8,5.7-2.4c1.6-1.6,2.4-3.5,2.4-5.8v-5.3
			c-2.9,4.2-6.5,6.3-10.9,6.3c-3.6,0-6.7-1.5-9.4-4.5c-2.7-3-4-6.5-4-10.5c0-4.1,1.3-7.5,3.9-10.4c2.6-2.9,5.7-4.3,9.3-4.3
			c4.6,0,8.3,2.2,11.1,6.7V641z M941.5,655.1c0-2.6-0.9-4.9-2.8-6.6c-1.8-1.8-4.1-2.7-6.8-2.7c-2.5,0-4.7,0.9-6.6,2.8
			c-1.9,1.8-2.8,4-2.8,6.4c0,2.6,0.9,4.9,2.8,6.8c1.9,1.9,4.1,2.8,6.7,2.8c2.6,0,4.9-0.9,6.7-2.8
			C940.6,659.9,941.5,657.7,941.5,655.1z"/>
		<path class="st0" d="M1030.3,630.5l-4.8,3.9c-1.3-1.3-2.4-2.3-3.5-3c-1-0.7-2.5-1-4.5-1c-2.1,0-3.9,0.5-5.2,1.4s-2,2.2-2,3.7
			c0,1.3,0.6,2.5,1.7,3.5s3.1,2.1,5.9,3.3c2.8,1.2,5,2.3,6.5,3.4c1.6,1,2.8,2.2,3.8,3.4s1.7,2.6,2.2,4s0.7,2.9,0.7,4.4
			c0,3.6-1.3,6.7-3.9,9.3s-5.8,3.8-9.6,3.8c-3.6,0-6.9-1-9.7-3c-2.8-2-4.9-5-6.4-9l5.9-1.7c2.2,4.9,5.5,7.3,9.9,7.3
			c2.2,0,4-0.6,5.4-1.9s2.2-2.9,2.2-4.9c0-1.2-0.4-2.4-1.1-3.6s-1.7-2.2-2.8-2.9c-1.1-0.8-2.9-1.7-5.3-2.7c-2.4-1-4.3-1.9-5.6-2.7
			c-1.3-0.8-2.5-1.8-3.4-3c-1-1.2-1.7-2.3-2.1-3.4s-0.7-2.4-0.7-3.7c0-3.1,1.3-5.8,3.8-8s5.5-3.3,9.1-3.3c2.4,0,4.8,0.5,7.2,1.5
			S1028.7,628.4,1030.3,630.5z"/>
		<path class="st0" d="M1080.3,656.3h-24.1c0.5,2.9,1.7,5,3.6,6.3c1.9,1.3,3.9,2,6.1,2c3.4,0,6.2-1.4,8.5-4.2l4.3,3.3
			c-3.3,4.2-7.6,6.3-13.1,6.3c-4.2,0-7.7-1.4-10.5-4.3s-4.2-6.4-4.2-10.7c0-4,1.4-7.4,4.3-10.4c2.9-2.9,6.4-4.4,10.5-4.4
			c4.1,0,7.5,1.5,10.4,4.5C1078.9,647.7,1080.3,651.5,1080.3,656.3z M1056.8,651.5h17.2c-1.9-3.9-4.7-5.8-8.5-5.8
			C1061.5,645.7,1058.6,647.6,1056.8,651.5z"/>
		<path class="st0" d="M1103,632.8h5.9v8.2h5.9v5.4h-5.9v22.8h-5.9v-22.8h-4.7v-5.5h4.7V632.8z"/>
		<path class="st0" d="M888.5,716.6l-4.4,4.3c-4.4-4.4-9.6-6.5-15.4-6.5c-5.1,0-9.4,1.6-12.7,4.9c-3.4,3.3-5.1,7.4-5.1,12.3
			c0,4.3,1.6,8.2,4.9,11.6c3.3,3.4,7.8,5.2,13.6,5.2c8.7,0,14.1-3.8,16.4-11.3H874v-5.9h18.6c0,3-0.2,5.4-0.6,7.1
			c-0.4,1.8-1.2,3.7-2.5,5.9c-1.3,2.1-2.9,4.1-5,5.8c-2.1,1.7-4.3,2.9-6.7,3.6c-2.4,0.7-5.2,1.1-8.5,1.1c-7.5,0-13.5-2.4-18-7.1
			s-6.7-10.1-6.7-16.2c0-6.4,2.3-11.8,6.9-16.3c4.6-4.5,10.1-6.7,16.6-6.7c3.9,0,7.4,0.6,10.6,1.8
			C881.9,711.2,885.2,713.4,888.5,716.6z"/>
		<path class="st0" d="M920.5,725v5.8c1.3-2.3,2.6-4,3.9-5c1.3-1,2.9-1.6,4.9-1.6c0.6,0,1.4,0.1,2.5,0.4l-1.8,5.9
			c-1.1-0.2-1.9-0.3-2.3-0.3c-2,0-3.7,0.7-5,2.1c-1.4,1.4-2,3.2-2,5.2v15.6h-5.9V725H920.5z"/>
		<path class="st0" d="M948.2,739c0-3.9,1.5-7.3,4.6-10.3c3-3,6.5-4.5,10.5-4.5c4.1,0,7.6,1.5,10.6,4.4c3,3,4.5,6.4,4.5,10.3
			c0,4-1.5,7.5-4.5,10.5s-6.4,4.5-10.3,4.5c-4.2,0-7.8-1.5-10.9-4.5C949.7,746.5,948.2,743,948.2,739z M972.7,739
			c0-2.4-0.9-4.5-2.7-6.3c-1.8-1.8-4-2.7-6.5-2.7c-2.6,0-4.8,0.9-6.6,2.7c-1.9,1.8-2.8,3.9-2.8,6.4c0,2.4,0.9,4.5,2.8,6.2
			s4.1,2.7,6.6,2.7c2.5,0,4.6-0.9,6.5-2.7S972.7,741.4,972.7,739z"/>
		<path class="st0" d="M997.7,725h5.9v15.9c0,4.9,2.2,7.3,6.5,7.3c1.9,0,3.4-0.7,4.5-2c1.1-1.3,1.7-3.1,1.7-5.4V725h5.9v16.9
			c0,3.5-1.2,6.4-3.5,8.7c-2.3,2.3-5.2,3.4-8.8,3.4c-3.6,0-6.6-1.1-8.9-3.4c-2.3-2.3-3.4-5.3-3.4-8.9V725z"/>
		<path class="st0" d="M1050.1,725v5.7c2.8-4.3,6.5-6.5,10.9-6.5c3.6,0,6.8,1.5,9.4,4.4c2.6,2.9,3.9,6.4,3.9,10.4
			c0,4.1-1.3,7.6-4,10.6c-2.7,3-5.8,4.4-9.4,4.4c-2.1,0-4.1-0.5-6-1.6s-3.5-2.7-4.8-4.8v18.8h-5.9V725H1050.1z M1068.2,739
			c0-2.5-0.9-4.7-2.8-6.5c-1.9-1.9-4.1-2.8-6.6-2.8c-2.6,0-4.8,0.9-6.7,2.8s-2.8,4-2.8,6.5c0,2.6,0.9,4.8,2.8,6.7
			c1.9,1.9,4,2.8,6.6,2.8c2.6,0,4.9-0.9,6.7-2.8C1067.2,743.9,1068.2,741.6,1068.2,739z"/>
	</g>
	<path class="st0" d="M1146.8,614.4H816.6c-1.6,0-2.8-1.3-2.8-2.8v-4.2h333.1V614.4z"/>
	<rect x="773.3" y="692.4" class="st0" width="373.5" height="7.1"/>
	<rect x="772.7" y="777.4" class="st0" width="441.9" height="7.1"/>
	<g>
		<path class="st0" d="M1163.9,835.2l-59.1,34.1c-1.6,0.9-3.5,0.4-4.4-1.2l-6.2-10.7c-0.9-1.6-0.4-3.5,1.2-4.4l59.1-34.1
			c1.6-0.9,3.5-0.4,4.4,1.2l6.2,10.7C1166,832.4,1165.5,834.3,1163.9,835.2z"/>
		<path class="st1" d="M1193.8,813.5l-27.2,15.7c-1,0.6-2.2,0.2-2.8-0.8l-3.5-6.1c-0.6-1-0.2-2.2,0.8-2.8l27.2-15.7
			c1-0.6,2.2-0.2,2.8,0.8l3.5,6.1C1195.1,811.7,1194.7,812.9,1193.8,813.5z"/>
		<rect x="1170.8" y="812.5" transform="matrix(0.866 -0.5 0.5 0.866 -251.6349 696.9974)" class="st1" width="8" height="11.1"/>
		<path class="st1" d="M1199.8,808.3l-3.2,1.8c-1,0.6-2.2,0.2-2.8-0.8l-2-3.5c-0.6-1-0.2-2.2,0.8-2.8l3.2-1.8c1-0.6,2.2-0.2,2.8,0.8
			l2,3.5C1201.2,806.5,1200.8,807.7,1199.8,808.3z"/>
	</g>
	<g>
		<g>
			<path class="st0" d="M792.3,355.7c-28.6,0-52,23.5-52,52.2v122.4c0,28.8,23.3,52.2,52,52.2h59.6c2.4,0,4.3-2,4.3-4.4v-218
				c0-2.4-1.9-4.4-4.3-4.4H792.3z"/>
			<path d="M807.8,567.8c-31.1,0-56.3-25.5-56.3-57v-25.4c0-2,1.6-3.7,3.6-3.7h14.4h3.3h6.9c2,0,3.6,1.7,3.6,3.7l0,0
				c0,2-1.6,3.7-3.6,3.7h-6.5c-2,0-3.6,1.7-3.6,3.7v12.9c0,28.8,20.3,52.2,45.2,52.2h17.7c2,0,3.6-1.7,3.6-3.7v-75
				c0-2.7-2.2-4.9-4.8-4.9h-58.5h-3.3h-14.4c-2,0-3.6-1.7-3.6-3.7v-43.1c0-31.4,25.3-57,56.3-57h33.6c2,0,3.6,1.7,3.6,3.7V451
				c0,2.7-2.2,4.9-4.8,4.9h-4.1h-5.3h-3.3c-2,0-3.6-1.7-3.6-3.7v0c0-2,1.6-3.7,3.6-3.7h3.7c2.7,0,4.8-2.2,4.8-4.9v-58.3
				c0-2.7-2.2-4.9-4.8-4.9h-16.5c-24.9,0-45.2,23.5-45.2,52.2v27c0,2,1.6,3.7,3.6,3.7h57.6h5.3h4.1c2.7,0,4.8,2.2,4.8,4.9v96
				c0,2-1.6,3.7-3.6,3.7H807.8z"/>
		</g>
		<path class="st0" d="M860.8,582.5h-1.6V355.7h1.6c3.9,0,7.1,3.2,7.1,7.1v212.6C867.9,579.3,864.7,582.5,860.8,582.5z"/>
	</g>
	<g>
		<g>
			<path class="st0" d="M1127.7,355.7c28.6,0,52,23.5,52,52.2v122.4c0,28.8-23.3,52.2-52,52.2h-59.6c-2.4,0-4.3-2-4.3-4.4v-218
				c0-2.4,1.9-4.4,4.3-4.4H1127.7z"/>
			<path d="M1112.2,567.8c31.1,0,56.3-25.5,56.3-57v-25.4c0-2-1.6-3.7-3.6-3.7h-14.4h-3.3h-6.9c-2,0-3.6,1.7-3.6,3.7l0,0
				c0,2,1.6,3.7,3.6,3.7h6.5c2,0,3.6,1.7,3.6,3.7v12.9c0,28.8-20.3,52.2-45.2,52.2h-17.7c-2,0-3.6-1.7-3.6-3.7v-75
				c0-2.7,2.2-4.9,4.8-4.9h58.5h3.3h14.4c2,0,3.6-1.7,3.6-3.7v-43.1c0-31.4-25.3-57-56.3-57h-33.6c-2,0-3.6,1.7-3.6,3.7V451
				c0,2.7,2.2,4.9,4.8,4.9h4.1h5.3h3.3c2,0,3.6-1.7,3.6-3.7v0c0-2-1.6-3.7-3.6-3.7h-3.7c-2.7,0-4.8-2.2-4.8-4.9v-58.3
				c0-2.7,2.2-4.9,4.8-4.9h16.5c24.9,0,45.2,23.5,45.2,52.2v27c0,2-1.6,3.7-3.6,3.7h-57.6h-5.3h-4.1c-2.7,0-4.8,2.2-4.8,4.9v96
				c0,2,1.6,3.7,3.6,3.7H1112.2z"/>
		</g>
		<path class="st0" d="M1059.2,582.5h1.6V355.7h-1.6c-3.9,0-7.1,3.2-7.1,7.1v212.6C1052.1,579.3,1055.3,582.5,1059.2,582.5z"/>
	</g>
	<path class="st0" d="M774.6,777.4c-21.5,0-39-17.5-39-39s17.5-39,39-39v-7.1c-25.4,0-46.1,20.6-46.1,46.1s20.6,46.1,46.1,46.1
		V777.4z"/>
	<path class="st0" d="M1145.4,607.3v7.1c21.5,0,39,17.5,39,39s-17.5,39-39,39v7.1c25.4,0,46.1-20.6,46.1-46.1
		S1170.9,607.3,1145.4,607.3z"/>
	<path class="st0" d="M820.8,607.3h-7.1v-19.8c0-1.6,1.3-2.8,2.8-2.8h1.4c1.6,0,2.8,1.3,2.8,2.8V607.3z"/>
	<path class="st0" d="M1152.5,829.4c-0.4,0-0.7,0.1-1,0.3c-54.9,36.3-120.7,57.5-191.4,57.5c-187.7,0-340.7-149-347-335.2
		c-6.9-200.5,158.6-366,359.1-359.1c186.2,6.4,335.2,159.3,335.2,347c0,93.7-37.1,178.8-97.5,241.2c-1.2,1.2-0.3,3.3,1.4,3.3h4.5
		c0.5,0,1-0.2,1.4-0.6c60.3-63.5,97.3-149.4,97.3-243.9c0-195.1-157.6-353.3-352.4-354.3c-196.6-1-357.3,159.7-356.2,356.2
		c1,194.8,159.3,352.4,354.3,352.4c73.9,0,142.6-22.7,199.4-61.4c1.6-1.1,0.8-3.5-1.1-3.5H1152.5z"/>
</g>
</svg>
