<svg id="Слой_1" xmlns="http://www.w3.org/2000/svg" viewBox="0 0 1080 1080"><style>.st0{fill:#fff}.st1,.st2{stroke:#fff;stroke-miterlimit:10}.st2{fill:#fff;stroke:#000}</style><path d="M0 0h1080v1080H0z"/><path class="st0" d="M652.7 64.8H427.3c-57 0-103.3 52.9-103.3 118.2v49.8c0 2.6 2 4.7 4.4 4.7h99.8c2.4 0 4.4-2.1 4.4-4.7v-40.6c0-2.6-2-4.7-4.4-4.7-2.4 0-4.4 2.1-4.4 4.7v30.5c0 2.6-2 4.7-4.4 4.7H345c-2.4 0-4.4-2.1-4.4-4.7v-15.9c0-65.3 46.3-118.2 103.3-118.2h192.2c57.1 0 103.3 52.9 103.3 118.2v15.9c0 2.6-2 4.7-4.4 4.7h-81.3c-2.4 0-4.4 2.1-4.4 4.7v.6c0 2.6 2 4.7 4.4 4.7h97.9c2.4 0 4.4-2.1 4.4-4.7V183c0-65.3-46.3-118.2-103.3-118.2zM298.8 678l-7.3 5.9c-1.9-2-3.7-3.5-5.3-4.5-1.6-1-3.9-1.5-6.8-1.5-3.3 0-5.9.7-7.9 2.2-2 1.5-3 3.4-3 5.7 0 2 .9 3.8 2.7 5.3 1.8 1.5 4.8 3.2 9 5.1 4.3 1.8 7.6 3.5 10 5.1 2.4 1.6 4.3 3.3 5.8 5.2s2.7 3.9 3.4 6c.7 2.1 1.1 4.4 1.1 6.7 0 5.5-2 10.2-6 14.1-4 3.9-8.9 5.8-14.6 5.8-5.6 0-10.5-1.5-14.7-4.6-4.3-3-7.5-7.6-9.8-13.7l9.1-2.6c3.3 7.5 8.4 11.2 15.2 11.2 3.3 0 6-1 8.2-3 2.2-2 3.3-4.5 3.3-7.5 0-1.8-.6-3.6-1.7-5.4-1.1-1.8-2.6-3.3-4.3-4.5-1.7-1.2-4.4-2.5-8.1-4.1-3.7-1.5-6.6-2.9-8.6-4.2s-3.7-2.8-5.2-4.5c-1.5-1.8-2.5-3.5-3.2-5.2-.7-1.7-1-3.6-1-5.6 0-4.8 1.9-8.8 5.7-12.2 3.8-3.3 8.5-5 13.9-5 3.6 0 7.3.8 11 2.3 3.5 1.9 6.6 4.3 9.1 7.5zm30.8 37.2c0-5.9 2.3-11.1 7-15.7 4.6-4.6 10-6.8 16-6.8 6.2 0 11.6 2.2 16.2 6.7s6.9 9.8 6.9 15.8-2.3 11.4-6.8 16-9.8 6.9-15.7 6.9c-6.4 0-11.9-2.3-16.5-6.8-4.7-4.6-7.1-9.9-7.1-16.1zm37.3.1c0-3.7-1.4-6.8-4.2-9.5-2.8-2.7-6.1-4-9.9-4-3.9 0-7.3 1.4-10.1 4.1-2.8 2.7-4.2 6-4.2 9.8 0 3.6 1.4 6.8 4.3 9.5s6.2 4.1 10.1 4.1c3.8 0 7-1.4 9.8-4.2 2.8-2.9 4.2-6.1 4.2-9.8zm38.1 21.6v-43h8.9v7.1c2.6-2.9 5-5 7.1-6.3 2.1-1.3 4.5-2 7.1-2 3.9 0 7.2 1.3 10 3.9 2.8 2.6 4.1 5.7 4.1 9.3v31h-9.1v-28.4c0-2.3-.8-4.3-2.3-5.8-1.5-1.5-3.4-2.3-5.8-2.3-3 0-5.6 1.3-7.8 3.8-2.2 2.6-3.3 5.6-3.3 9.2v23.4H405zm105.5-43h8.9v41.3c0 6.1-2.1 11.2-6.3 15.5-4.2 4.3-9.2 6.4-15.2 6.4-4.5 0-8.7-1.2-12.4-3.7-3.8-2.4-6.6-6.2-8.3-11.2h9.4c2.8 4.7 6.7 7 11.7 7 3.4 0 6.3-1.2 8.7-3.7s3.6-5.4 3.6-8.8v-8.1c-4.4 6.4-9.9 9.5-16.6 9.5-5.5 0-10.3-2.3-14.4-6.8s-6.1-9.9-6.1-16.1 2-11.5 6-15.9 8.7-6.6 14.2-6.6c7.1 0 12.7 3.4 16.9 10.3v-9.1zm1.3 21.5c0-4-1.4-7.4-4.2-10.1-2.8-2.7-6.3-4.1-10.4-4.1-3.8 0-7.1 1.4-10 4.2-2.9 2.8-4.3 6.1-4.3 9.7 0 4 1.4 7.4 4.3 10.3 2.8 2.9 6.2 4.3 10.2 4.3 4 0 7.4-1.4 10.2-4.2 2.8-2.8 4.2-6.2 4.2-10.1zM647.1 678l-7.3 5.9c-1.9-2-3.7-3.5-5.3-4.5-1.6-1-3.9-1.5-6.8-1.5-3.3 0-5.9.7-7.9 2.2-2 1.5-3 3.4-3 5.7 0 2 .9 3.8 2.7 5.3 1.8 1.5 4.8 3.2 9 5.1 4.3 1.8 7.6 3.5 10 5.1 2.4 1.6 4.3 3.3 5.8 5.2s2.7 3.9 3.4 6c.7 2.1 1.1 4.4 1.1 6.7 0 5.5-2 10.2-6 14.1-4 3.9-8.9 5.8-14.6 5.8-5.6 0-10.5-1.5-14.7-4.6-4.3-3-7.5-7.6-9.8-13.7l9.1-2.6c3.3 7.5 8.4 11.2 15.2 11.2 3.3 0 6-1 8.2-3 2.2-2 3.3-4.5 3.3-7.5 0-1.8-.6-3.6-1.7-5.4-1.1-1.8-2.6-3.3-4.3-4.5-1.7-1.2-4.4-2.5-8.1-4.1-3.7-1.5-6.6-2.9-8.6-4.2s-3.7-2.8-5.2-4.5c-1.5-1.8-2.5-3.5-3.2-5.2-.7-1.7-1-3.6-1-5.6 0-4.8 1.9-8.8 5.7-12.2 3.8-3.3 8.5-5 13.9-5 3.6 0 7.3.8 11 2.3 3.6 1.9 6.7 4.3 9.1 7.5zm76.2 39.2h-36.7c.8 4.4 2.6 7.6 5.4 9.7 2.8 2 5.9 3 9.2 3 5.1 0 9.4-2.1 12.9-6.4l6.6 5c-5 6.4-11.6 9.6-20 9.6-6.4 0-11.7-2.2-16-6.6-4.3-4.4-6.5-9.8-6.5-16.3 0-6.1 2.2-11.3 6.5-15.8 4.4-4.5 9.7-6.7 16-6.7 6.2 0 11.5 2.3 15.9 6.8 4.6 4.6 6.8 10.5 6.7 17.7zm-35.7-7.3h26.3c-2.9-5.9-7.2-8.9-12.9-8.9-6.3.1-10.7 3-13.4 8.9zm70.4-28.5h9.1v12.5h9v8.3h-9v34.7H758v-34.7h-7.1v-8.4h7.1v-12.4zM431.1 809.2l-6.7 6.6c-6.8-6.6-14.6-9.9-23.5-9.9-7.8 0-14.3 2.5-19.4 7.5-5.2 5-7.8 11.2-7.8 18.7 0 6.6 2.5 12.5 7.5 17.7 5 5.3 11.9 7.9 20.8 7.9 13.2 0 21.5-5.7 25-17.2h-18v-9.1h28.3c0 4.5-.3 8.2-.9 10.9-.6 2.7-1.9 5.7-3.8 8.9-1.9 3.3-4.5 6.2-7.6 8.8-3.2 2.6-6.6 4.4-10.2 5.5-3.6 1.1-8 1.7-13 1.7-11.5 0-20.6-3.6-27.4-10.8s-10.2-15.4-10.2-24.7c0-9.8 3.5-18.1 10.5-24.9 7-6.9 15.4-10.3 25.4-10.3 5.9 0 11.3.9 16.2 2.7 4.7 1.8 9.7 5.1 14.8 10zm48.7 12.8v8.9c2-3.5 4-6.1 5.9-7.7s4.4-2.4 7.5-2.4c.9 0 2.1.2 3.8.6l-2.8 9.1c-1.7-.3-2.9-.5-3.4-.5-3.1 0-5.6 1.1-7.7 3.2-2.1 2.1-3.1 4.8-3.1 8V865h-9.1v-43h8.9zm42.2 21.3c0-5.9 2.3-11.1 7-15.7 4.6-4.6 10-6.8 16-6.8 6.2 0 11.6 2.2 16.2 6.7s6.9 9.8 6.9 15.8-2.3 11.4-6.8 16-9.8 6.9-15.7 6.9c-6.4 0-11.9-2.3-16.5-6.8-4.8-4.6-7.1-10-7.1-16.1zm37.3 0c0-3.7-1.4-6.8-4.2-9.5-2.8-2.7-6.1-4-9.9-4-3.9 0-7.3 1.4-10.1 4.1-2.8 2.7-4.2 6-4.2 9.8 0 3.6 1.4 6.8 4.3 9.5s6.2 4.1 10.1 4.1c3.8 0 7-1.4 9.8-4.2 2.8-2.9 4.2-6.1 4.2-9.8zm38.2-21.3h9.1v24.2c0 7.5 3.3 11.2 9.8 11.2 2.9 0 5.2-1 6.9-3 1.7-2 2.6-4.7 2.6-8.2V822h9v25.7c0 5.4-1.8 9.8-5.3 13.3s-8 5.2-13.4 5.2c-5.6 0-10.1-1.7-13.5-5.2s-5.2-8-5.2-13.6V822zm79.8 0v8.6c4.3-6.6 9.9-9.8 16.6-9.8 5.5 0 10.3 2.2 14.3 6.6 4 4.4 6 9.7 6 15.9 0 6.2-2 11.6-6.1 16.1s-8.8 6.8-14.4 6.8c-3.2 0-6.3-.8-9.2-2.5-2.9-1.7-5.3-4.1-7.3-7.2v28.7h-9.1V822h9.2zm27.5 21.3c0-3.8-1.4-7.1-4.3-9.9-2.8-2.8-6.2-4.2-10-4.2-3.9 0-7.3 1.4-10.2 4.2-2.9 2.8-4.3 6.1-4.3 9.9 0 3.9 1.4 7.3 4.2 10.2 2.8 2.9 6.2 4.3 10 4.3 4 0 7.4-1.4 10.2-4.3 3-2.8 4.4-6.2 4.4-10.2zm119.9-189.9H319.9c-1.6 0-2.8-1.3-2.8-2.8v-8h507.6v10.8zM255.4 772.2h569.2V783H255.4zm-.9 129.6h673.4v10.8H254.5z"/><path class="st1" d="M897.2 956.3l-43.3 25c-1 .6-2.2.2-2.8-.8l-6.4-11.1c-.6-1-.2-2.2.8-2.8l43.3-25c1-.6 2.2-.2 2.8.8l6.4 11.1c.5 1 .2 2.2-.8 2.8z"/><path transform="rotate(-30 867.294 963.786)" class="st1" d="M861.3 955.3h12.2v16.9h-12.2z"/><path class="st1" d="M906.5 948.3l-6.7 3.9c-1 .6-2.2.2-2.8-.8l-4.2-7.2c-.6-1-.2-2.2.8-2.8l6.7-3.9c1-.6 2.2-.2 2.8.8l4.2 7.2c.5 1 .1 2.3-.8 2.8z"/><path class="st0" d="M284.5 259.2c-43.6 0-79.3 35.8-79.3 79.5v186.6c0 43.9 35.5 79.5 79.3 79.5h90.8c3.6 0 6.6-3 6.6-6.7V265.9c0-3.7-3-6.7-6.6-6.7h-90.8z"/><path d="M308.1 582.4c-47.4 0-85.7-38.9-85.7-86.9v-38.7c0-3.1 2.5-5.6 5.5-5.6h37.5c3.1 0 5.5 2.5 5.5 5.6 0 3.1-2.5 5.6-5.5 5.6h-9.9c-3.1 0-5.5 2.5-5.5 5.6v19.7c0 43.9 30.9 79.5 68.9 79.5h26.9c3.1 0 5.5-2.5 5.5-5.6V447.3c0-4.1-3.3-7.4-7.3-7.4H227.9c-3.1 0-5.5-2.5-5.5-5.6v-65.7c0-47.8 38.6-86.9 85.7-86.9h51.2c3.1 0 5.5 2.5 5.5 5.6v117.1c0 4.1-3.3 7.4-7.3 7.4h-19.2c-3.1 0-5.5-2.5-5.5-5.6 0-3.1 2.5-5.6 5.5-5.6h5.7c4 0 7.3-3.3 7.3-7.4v-88.9c0-4.1-3.3-7.4-7.3-7.4h-25.1c-37.9 0-68.9 35.8-68.9 79.5v41.1c0 3.1 2.5 5.6 5.5 5.6h102c4 0 7.3 3.3 7.3 7.4v146.3c0 3.1-2.5 5.6-5.5 5.6h-51.2z"/><path class="st0" d="M392.5 604.8h-6.2V259.2h6.2c3.9 0 7.1 3.2 7.1 7.1v331.4c0 3.9-3.2 7.1-7.1 7.1zm403-345.6c43.6 0 79.3 35.8 79.3 79.5v186.6c0 43.9-35.5 79.5-79.3 79.5h-90.8c-3.6 0-6.6-3-6.6-6.7V265.9c0-3.7 3-6.7 6.6-6.7h90.8z"/><path d="M771.9 582.4c47.4 0 85.7-38.9 85.7-86.9v-38.7c0-3.1-2.5-5.6-5.5-5.6h-37.5c-3.1 0-5.5 2.5-5.5 5.6 0 3.1 2.5 5.6 5.5 5.6h9.9c3.1 0 5.5 2.5 5.5 5.6v19.7c0 43.9-30.9 79.5-68.9 79.5h-26.9c-3.1 0-5.5-2.5-5.5-5.6V447.3c0-4.1 3.3-7.4 7.3-7.4h116.1c3.1 0 5.5-2.5 5.5-5.6v-65.7c0-47.8-38.6-86.9-85.7-86.9h-51.2c-3.1 0-5.5 2.5-5.5 5.6v117.1c0 4.1 3.3 7.4 7.3 7.4h19.2c3.1 0 5.5-2.5 5.5-5.6 0-3.1-2.5-5.6-5.5-5.6H736c-4 0-7.3-3.3-7.3-7.4v-88.9c0-4.1 3.3-7.4 7.3-7.4h25.1c37.9 0 68.9 35.8 68.9 79.5v41.1c0 3.1-2.5 5.6-5.5 5.6h-102c-4 0-7.3 3.3-7.3 7.4v146.3c0 3.1 2.5 5.6 5.5 5.6h51.2z"/><path class="st0" d="M687.5 604.8h6.2V259.2h-6.2c-3.9 0-7.1 3.2-7.1 7.1v331.4c0 3.9 3.2 7.1 7.1 7.1zm-430.1 297c-32.8 0-59.4-26.6-59.4-59.4s26.6-59.4 59.4-59.4v-10.8c-38.8 0-70.2 31.4-70.2 70.2s31.4 70.2 70.2 70.2v-10.8zm565.2-259.2v10.8c32.8 0 59.4 26.6 59.4 59.4s-26.6 59.4-59.4 59.4V783c38.8 0 70.2-31.4 70.2-70.2s-31.4-70.2-70.2-70.2zm-494.7 0h-10.8v-31.7c0-1.6 1.3-2.8 2.8-2.8h5.1c1.6 0 2.8 1.3 2.8 2.8v31.7z"/><path class="st0" d="M833.3 981.1c-.6 0-1.1.2-1.6.5-83.6 55.4-183.9 87.6-291.7 87.6-286.1 0-519.2-227-528.9-510.8C.7 252.9 252.9.7 558.4 11.1c283.7 9.7 510.8 242.8 510.8 528.9 0 142.8-56.6 272.4-148.6 367.6-1.8 1.9-.5 5 2.1 5h6.9c.8 0 1.6-.3 2.1-.9C1023.6 814.9 1080 684 1080 540 1080 242.7 839.8 1.6 542.9 0 243.3-1.6-1.6 243.3 0 542.9 1.6 839.8 242.7 1080 540 1080c112.7 0 217.3-34.5 303.9-93.6 2.4-1.6 1.2-5.4-1.7-5.4h-8.9z"/><path class="st2" d="M853.8 987.6l-93 53.7c-1.6.9-3.5.4-4.4-1.2l-11.2-19.3c-.9-1.6-.4-3.5 1.2-4.4l93-53.7c1.6-.9 3.5-.4 4.4 1.2l11.2 19.3c.9 1.5.3 3.5-1.2 4.4z"/></svg>