<svg id="Слой_1" xmlns="http://www.w3.org/2000/svg" viewBox="0 0 1920 1080"><style>.st0{fill:#fff}.st1,.st2{stroke:#fff;stroke-miterlimit:10}.st2{fill:#fff;stroke:#000}</style><path d="M0 0h1920v1080H0z"/><path class="st0" d="M1033.9 228.2H886.1c-37.4 0-67.8 34.7-67.8 77.6v32.7c0 1.7 1.3 3.1 2.9 3.1h65.5c1.6 0 2.9-1.4 2.9-3.1v-26.6c0-1.7-1.3-3.1-2.9-3.1-1.6 0-2.9 1.4-2.9 3.1v20c0 1.7-1.3 3.1-2.9 3.1h-48.8c-1.6 0-2.9-1.4-2.9-3.1v-10.4c0-42.8 30.4-77.6 67.8-77.6h126.1c37.4 0 67.8 34.7 67.8 77.6v10.4c0 1.7-1.3 3.1-2.9 3.1h-53.4c-1.6 0-2.9 1.4-2.9 3.1v.4c0 1.7 1.3 3.1 2.9 3.1h64.2c1.6 0 2.9-1.4 2.9-3.1v-32.7c0-42.9-30.3-77.6-67.8-77.6zM801.7 630.5l-4.8 3.9c-1.3-1.3-2.4-2.3-3.5-3-1-.7-2.5-1-4.5-1-2.1 0-3.9.5-5.2 1.4-1.3 1-2 2.2-2 3.7 0 1.3.6 2.5 1.7 3.5 1.2 1 3.1 2.1 5.9 3.3 2.8 1.2 5 2.3 6.5 3.4s2.8 2.2 3.8 3.4 1.7 2.6 2.2 4 .7 2.9.7 4.4c0 3.6-1.3 6.7-3.9 9.3s-5.8 3.8-9.6 3.8c-3.6 0-6.9-1-9.7-3-2.8-2-4.9-5-6.4-9l5.9-1.7c2.2 4.9 5.5 7.3 9.9 7.3 2.2 0 4-.6 5.4-1.9s2.2-2.9 2.2-4.9c0-1.2-.4-2.4-1.1-3.6-.8-1.2-1.7-2.2-2.8-2.9-1.1-.8-2.9-1.7-5.3-2.7-2.4-1-4.3-1.9-5.6-2.7s-2.5-1.8-3.4-3c-1-1.2-1.7-2.3-2.1-3.4-.4-1.1-.7-2.4-.7-3.7 0-3.1 1.3-5.8 3.8-8s5.5-3.3 9.1-3.3c2.4 0 4.8.5 7.2 1.5 2.7 1.3 4.7 2.8 6.3 4.9zM822 655c0-3.9 1.5-7.3 4.6-10.3 3-3 6.5-4.5 10.5-4.5 4.1 0 7.6 1.5 10.6 4.4 3 3 4.5 6.4 4.5 10.3 0 4-1.5 7.5-4.5 10.5s-6.4 4.5-10.3 4.5c-4.2 0-7.8-1.5-10.9-4.5-3-2.9-4.5-6.4-4.5-10.4zm24.4 0c0-2.4-.9-4.5-2.7-6.3-1.8-1.8-4-2.7-6.5-2.7-2.6 0-4.8.9-6.6 2.7-1.9 1.8-2.8 3.9-2.8 6.4 0 2.4.9 4.5 2.8 6.2s4.1 2.7 6.6 2.7 4.6-.9 6.5-2.7 2.7-3.9 2.7-6.3zm25 14.2V641h5.8v4.7c1.7-1.9 3.3-3.3 4.6-4.2 1.4-.9 2.9-1.3 4.6-1.3 2.6 0 4.7.8 6.5 2.5 1.8 1.7 2.7 3.7 2.7 6.1v20.4h-5.9v-18.6c0-1.5-.5-2.8-1.5-3.8s-2.3-1.5-3.8-1.5c-2 0-3.7.8-5.1 2.5-1.4 1.7-2.2 3.7-2.2 6.1v15.3h-5.7zm69.3-28.2h5.8v27.1c0 4-1.4 7.4-4.1 10.2-2.7 2.8-6.1 4.2-10 4.2-3 0-5.7-.8-8.2-2.4-2.5-1.6-4.3-4.1-5.5-7.3h6.2c1.8 3.1 4.4 4.6 7.7 4.6 2.2 0 4.1-.8 5.7-2.4 1.6-1.6 2.4-3.5 2.4-5.8v-5.3c-2.9 4.2-6.5 6.3-10.9 6.3-3.6 0-6.7-1.5-9.4-4.5s-4-6.5-4-10.5c0-4.1 1.3-7.5 3.9-10.4 2.6-2.9 5.7-4.3 9.3-4.3 4.6 0 8.3 2.2 11.1 6.7V641zm.8 14.1c0-2.6-.9-4.9-2.8-6.6-1.8-1.8-4.1-2.7-6.8-2.7-2.5 0-4.7.9-6.6 2.8-1.9 1.8-2.8 4-2.8 6.4 0 2.6.9 4.9 2.8 6.8 1.9 1.9 4.1 2.8 6.7 2.8 2.6 0 4.9-.9 6.7-2.8 1.9-1.9 2.8-4.1 2.8-6.7zm88.8-24.6l-4.8 3.9c-1.3-1.3-2.4-2.3-3.5-3-1-.7-2.5-1-4.5-1-2.1 0-3.9.5-5.2 1.4s-2 2.2-2 3.7c0 1.3.6 2.5 1.7 3.5s3.1 2.1 5.9 3.3c2.8 1.2 5 2.3 6.5 3.4 1.6 1 2.8 2.2 3.8 3.4s1.7 2.6 2.2 4 .7 2.9.7 4.4c0 3.6-1.3 6.7-3.9 9.3s-5.8 3.8-9.6 3.8c-3.6 0-6.9-1-9.7-3-2.8-2-4.9-5-6.4-9l5.9-1.7c2.2 4.9 5.5 7.3 9.9 7.3 2.2 0 4-.6 5.4-1.9s2.2-2.9 2.2-4.9c0-1.2-.4-2.4-1.1-3.6s-1.7-2.2-2.8-2.9c-1.1-.8-2.9-1.7-5.3-2.7-2.4-1-4.3-1.9-5.6-2.7-1.3-.8-2.5-1.8-3.4-3-1-1.2-1.7-2.3-2.1-3.4s-.7-2.4-.7-3.7c0-3.1 1.3-5.8 3.8-8s5.5-3.3 9.1-3.3c2.4 0 4.8.5 7.2 1.5s4.7 2.8 6.3 4.9zm50 25.8h-24.1c.5 2.9 1.7 5 3.6 6.3 1.9 1.3 3.9 2 6.1 2 3.4 0 6.2-1.4 8.5-4.2l4.3 3.3c-3.3 4.2-7.6 6.3-13.1 6.3-4.2 0-7.7-1.4-10.5-4.3s-4.2-6.4-4.2-10.7c0-4 1.4-7.4 4.3-10.4 2.9-2.9 6.4-4.4 10.5-4.4s7.5 1.5 10.4 4.5c2.8 3 4.2 6.8 4.2 11.6zm-23.5-4.8h17.2c-1.9-3.9-4.7-5.8-8.5-5.8-4 0-6.9 1.9-8.7 5.8zm46.2-18.7h5.9v8.2h5.9v5.4h-5.9v22.8h-5.9v-22.8h-4.7v-5.5h4.7v-8.1zm-214.5 83.8l-4.4 4.3c-4.4-4.4-9.6-6.5-15.4-6.5-5.1 0-9.4 1.6-12.7 4.9-3.4 3.3-5.1 7.4-5.1 12.3 0 4.3 1.6 8.2 4.9 11.6 3.3 3.4 7.8 5.2 13.6 5.2 8.7 0 14.1-3.8 16.4-11.3H874v-5.9h18.6c0 3-.2 5.4-.6 7.1-.4 1.8-1.2 3.7-2.5 5.9-1.3 2.1-2.9 4.1-5 5.8-2.1 1.7-4.3 2.9-6.7 3.6-2.4.7-5.2 1.1-8.5 1.1-7.5 0-13.5-2.4-18-7.1s-6.7-10.1-6.7-16.2c0-6.4 2.3-11.8 6.9-16.3 4.6-4.5 10.1-6.7 16.6-6.7 3.9 0 7.4.6 10.6 1.8 3.2 1 6.5 3.2 9.8 6.4zm32 8.4v5.8c1.3-2.3 2.6-4 3.9-5 1.3-1 2.9-1.6 4.9-1.6.6 0 1.4.1 2.5.4l-1.8 5.9c-1.1-.2-1.9-.3-2.3-.3-2 0-3.7.7-5 2.1-1.4 1.4-2 3.2-2 5.2v15.6h-5.9V725h5.7zm27.7 14c0-3.9 1.5-7.3 4.6-10.3 3-3 6.5-4.5 10.5-4.5 4.1 0 7.6 1.5 10.6 4.4 3 3 4.5 6.4 4.5 10.3 0 4-1.5 7.5-4.5 10.5s-6.4 4.5-10.3 4.5c-4.2 0-7.8-1.5-10.9-4.5-3-2.9-4.5-6.4-4.5-10.4zm24.5 0c0-2.4-.9-4.5-2.7-6.3-1.8-1.8-4-2.7-6.5-2.7-2.6 0-4.8.9-6.6 2.7-1.9 1.8-2.8 3.9-2.8 6.4 0 2.4.9 4.5 2.8 6.2s4.1 2.7 6.6 2.7 4.6-.9 6.5-2.7 2.7-3.9 2.7-6.3zm25-14h5.9v15.9c0 4.9 2.2 7.3 6.5 7.3 1.9 0 3.4-.7 4.5-2s1.7-3.1 1.7-5.4V725h5.9v16.9c0 3.5-1.2 6.4-3.5 8.7-2.3 2.3-5.2 3.4-8.8 3.4-3.6 0-6.6-1.1-8.9-3.4-2.3-2.3-3.4-5.3-3.4-8.9V725zm52.4 0v5.7c2.8-4.3 6.5-6.5 10.9-6.5 3.6 0 6.8 1.5 9.4 4.4 2.6 2.9 3.9 6.4 3.9 10.4 0 4.1-1.3 7.6-4 10.6s-5.8 4.4-9.4 4.4c-2.1 0-4.1-.5-6-1.6s-3.5-2.7-4.8-4.8v18.8h-5.9V725h5.9zm18.1 14c0-2.5-.9-4.7-2.8-6.5-1.9-1.9-4.1-2.8-6.6-2.8-2.6 0-4.8.9-6.7 2.8s-2.8 4-2.8 6.5c0 2.6.9 4.8 2.8 6.7 1.9 1.9 4 2.8 6.6 2.8 2.6 0 4.9-.9 6.7-2.8 1.8-1.8 2.8-4.1 2.8-6.7zm78.6-124.6H816.6c-1.6 0-2.8-1.3-2.8-2.8v-4.2h333.1v7zm-373.5 78h373.5v7.1H773.3zm-.6 85h441.9v7.1H772.7z"/><path class="st1" d="M1193.8 813.5l-27.2 15.7c-1 .6-2.2.2-2.8-.8l-3.5-6.1c-.6-1-.2-2.2.8-2.8l27.2-15.7c1-.6 2.2-.2 2.8.8l3.5 6.1c.5 1 .1 2.2-.8 2.8z"/><path transform="rotate(-30 1174.744 818.101)" class="st1" d="M1170.8 812.5h8v11.1h-8z"/><path class="st1" d="M1199.8 808.3l-3.2 1.8c-1 .6-2.2.2-2.8-.8l-2-3.5c-.6-1-.2-2.2.8-2.8l3.2-1.8c1-.6 2.2-.2 2.8.8l2 3.5c.6 1 .2 2.2-.8 2.8z"/><path class="st0" d="M792.3 355.7c-28.6 0-52 23.5-52 52.2v122.4c0 28.8 23.3 52.2 52 52.2h59.6c2.4 0 4.3-2 4.3-4.4v-218c0-2.4-1.9-4.4-4.3-4.4h-59.6z"/><path d="M807.8 567.8c-31.1 0-56.3-25.5-56.3-57v-25.4c0-2 1.6-3.7 3.6-3.7h24.6c2 0 3.6 1.7 3.6 3.7s-1.6 3.7-3.6 3.7h-6.5c-2 0-3.6 1.7-3.6 3.7v12.9c0 28.8 20.3 52.2 45.2 52.2h17.7c2 0 3.6-1.7 3.6-3.7v-75c0-2.7-2.2-4.9-4.8-4.9h-76.2c-2 0-3.6-1.7-3.6-3.7v-43.1c0-31.4 25.3-57 56.3-57h33.6c2 0 3.6 1.7 3.6 3.7V451c0 2.7-2.2 4.9-4.8 4.9h-12.7c-2 0-3.6-1.7-3.6-3.7s1.6-3.7 3.6-3.7h3.7c2.7 0 4.8-2.2 4.8-4.9v-58.3c0-2.7-2.2-4.9-4.8-4.9h-16.5c-24.9 0-45.2 23.5-45.2 52.2v27c0 2 1.6 3.7 3.6 3.7h67c2.7 0 4.8 2.2 4.8 4.9v96c0 2-1.6 3.7-3.6 3.7h-33.5z"/><path class="st0" d="M860.8 582.5h-1.6V355.7h1.6c3.9 0 7.1 3.2 7.1 7.1v212.6c0 3.9-3.2 7.1-7.1 7.1zm266.9-226.8c28.6 0 52 23.5 52 52.2v122.4c0 28.8-23.3 52.2-52 52.2h-59.6c-2.4 0-4.3-2-4.3-4.4v-218c0-2.4 1.9-4.4 4.3-4.4h59.6z"/><path d="M1112.2 567.8c31.1 0 56.3-25.5 56.3-57v-25.4c0-2-1.6-3.7-3.6-3.7h-24.6c-2 0-3.6 1.7-3.6 3.7s1.6 3.7 3.6 3.7h6.5c2 0 3.6 1.7 3.6 3.7v12.9c0 28.8-20.3 52.2-45.2 52.2h-17.7c-2 0-3.6-1.7-3.6-3.7v-75c0-2.7 2.2-4.9 4.8-4.9h76.2c2 0 3.6-1.7 3.6-3.7v-43.1c0-31.4-25.3-57-56.3-57h-33.6c-2 0-3.6 1.7-3.6 3.7V451c0 2.7 2.2 4.9 4.8 4.9h12.7c2 0 3.6-1.7 3.6-3.7s-1.6-3.7-3.6-3.7h-3.7c-2.7 0-4.8-2.2-4.8-4.9v-58.3c0-2.7 2.2-4.9 4.8-4.9h16.5c24.9 0 45.2 23.5 45.2 52.2v27c0 2-1.6 3.7-3.6 3.7h-67c-2.7 0-4.8 2.2-4.8 4.9v96c0 2 1.6 3.7 3.6 3.7h33.5z"/><path class="st0" d="M1059.2 582.5h1.6V355.7h-1.6c-3.9 0-7.1 3.2-7.1 7.1v212.6c0 3.9 3.2 7.1 7.1 7.1zM774.6 777.4c-21.5 0-39-17.5-39-39s17.5-39 39-39v-7.1c-25.4 0-46.1 20.6-46.1 46.1s20.6 46.1 46.1 46.1v-7.1zm370.8-170.1v7.1c21.5 0 39 17.5 39 39s-17.5 39-39 39v7.1c25.4 0 46.1-20.6 46.1-46.1s-20.6-46.1-46.1-46.1zm-324.6 0h-7.1v-19.8c0-1.6 1.3-2.8 2.8-2.8h1.4c1.6 0 2.8 1.3 2.8 2.8v19.8z"/><path class="st0" d="M1152.5 829.4c-.4 0-.7.1-1 .3-54.9 36.3-120.7 57.5-191.4 57.5-187.7 0-340.7-149-347-335.2-6.9-200.5 158.6-366 359.1-359.1 186.2 6.4 335.2 159.3 335.2 347 0 93.7-37.1 178.8-97.5 241.2-1.2 1.2-.3 3.3 1.4 3.3h4.5c.5 0 1-.2 1.4-.6 60.3-63.5 97.3-149.4 97.3-243.9 0-195.1-157.6-353.3-352.4-354.3-196.6-1-357.3 159.7-356.2 356.2 1 194.8 159.3 352.4 354.3 352.4 73.9 0 142.6-22.7 199.4-61.4 1.6-1.1.8-3.5-1.1-3.5h-6z"/><path class="st2" d="M1164.9 834.2l-59.1 34.1c-1.6.9-3.5.4-4.4-1.2l-6.2-10.7c-.9-1.6-.4-3.5 1.2-4.4l59.1-34.1c1.6-.9 3.5-.4 4.4 1.2l6.2 10.7c.9 1.6.4 3.5-1.2 4.4z"/></svg>